<?xml version="1.0" standalone="no"?>
<!DOCTYPE svg PUBLIC "-//W3C//DTD SVG 20010904//EN"
 "http://www.w3.org/TR/2001/REC-SVG-20010904/DTD/svg10.dtd">
<svg version="1.0" xmlns="http://www.w3.org/2000/svg"
 width="263.000000pt" height="263.000000pt" viewBox="0 0 263.000000 263.000000"
 preserveAspectRatio="xMidYMid meet">
<metadata>
Created by potrace 1.14, written by Peter Selinger 2001-2017
</metadata>
<g transform="translate(0.000000,263.000000) scale(0.100000,-0.100000)"
fill="#000000" stroke="none">
<path d="M1068 2623 c-4 -7 -3 -96 1 -114 0 -3 81 -5 179 -5 148 0 182 -3 209
-17 58 -31 95 -82 107 -151 7 -40 -20 -118 -51 -148 -53 -51 -87 -58 -275 -58
l-173 0 1 -57 c1 -32 2 -60 3 -63 0 -3 79 -7 174 -8 94 -1 186 -7 203 -12 41
-14 90 -66 108 -116 27 -77 -1 -157 -71 -211 -32 -25 -46 -28 -134 -31 l-99
-4 0 -65 0 -65 103 5 c123 6 177 26 243 92 60 61 86 121 90 210 3 87 -20 154
-76 218 l-40 45 34 35 c54 57 80 122 82 202 4 125 -56 229 -167 290 -54 30
-54 30 -250 33 -108 2 -199 0 -201 -5z"/>
<path d="M1065 2318 l0 -63 155 0 155 0 2 63 2 62 -158 0 -157 0 1 -62z"/>
<path d="M1177 1869 c-55 -13 -122 -55 -162 -102 -106 -123 -93 -329 27 -431
75 -64 119 -78 257 -83 134 -4 169 -14 215 -62 15 -16 33 -48 40 -72 23 -78 4
-142 -57 -194 -44 -38 -75 -47 -175 -49 l-67 -1 -2 -64 -2 -63 103 4 c87 4
113 9 159 32 231 113 233 443 3 559 -54 27 -71 31 -198 37 -134 6 -139 7 -176
37 -52 43 -73 83 -74 145 -1 62 17 103 66 146 39 34 78 45 176 46 l65 1 1 63
1 62 -81 -1 c-44 -1 -98 -5 -119 -10z"/>
<path d="M1159 1111 c-221 -77 -290 -344 -133 -511 l33 -35 -36 -40 c-58 -65
-77 -117 -77 -215 -1 -76 3 -91 29 -139 37 -68 102 -125 171 -151 48 -17 78
-20 237 -20 l183 0 1 60 c0 38 -3 60 -11 61 -6 1 -76 3 -156 4 -80 1 -159 3
-175 4 -69 3 -146 81 -158 159 -8 47 17 123 50 154 53 51 87 58 276 58 l174 0
-1 62 -1 62 -165 3 c-203 3 -221 6 -266 45 -48 42 -67 83 -66 144 0 65 20 103
73 145 39 30 48 33 138 38 l96 6 0 60 0 60 -85 1 c-54 0 -102 -5 -131 -15z"/>
<path d="M1255 372 c-3 -3 -5 -32 -5 -64 l0 -58 158 0 158 0 0 63 -1 62 -153
1 c-83 0 -154 -2 -157 -4z"/>
</g>
</svg>
